<?xml version="1.0" standalone="no"?>
<!DOCTYPE svg PUBLIC "-//W3C//DTD SVG 20010904//EN"
 "http://www.w3.org/TR/2001/REC-SVG-20010904/DTD/svg10.dtd">
<svg version="1.0" xmlns="http://www.w3.org/2000/svg"
 width="260.000000pt" height="260.000000pt" viewBox="0 0 260.000000 260.000000"
 preserveAspectRatio="xMidYMid meet">
<metadata>
Created by potrace 1.11, written by Peter Selinger 2001-2013
</metadata>
<g transform="translate(0.000000,260.000000) scale(0.100000,-0.100000)"
fill="#f7296e" stroke="none">
<path d="M670 1752 c-229 -60 -382 -293 -341 -521 41 -228 236 -391 468 -391
128 0 244 60 363 187 77 83 77 78 19 154 l-18 24 -18 -25 c-47 -69 -150 -162
-212 -193 -58 -28 -76 -32 -146 -32 -71 0 -89 4 -147 33 -74 36 -133 96 -170
170 -30 62 -37 190 -14 259 51 149 220 257 372 238 137 -17 238 -107 429 -384
134 -195 232 -306 317 -362 202 -130 487 -67 626 139 57 86 56 92 -17 92 -57
0 -60 -1 -81 -34 -30 -49 -85 -95 -149 -124 -44 -20 -73 -26 -136 -26 -71 -1
-88 3 -147 32 -86 42 -183 145 -297 313 -47 68 -113 161 -147 205 -174 224
-345 300 -554 246z"/>
<path d="M1708 1759 c-96 -22 -226 -115 -309 -220 l-30 -39 32 -45 c31 -43 49
-56 49 -36 0 5 34 45 76 90 122 129 232 171 365 137 131 -34 231 -132 263
-258 l6 -28 -220 0 -220 0 0 -55 0 -55 275 0 c249 0 276 2 282 17 12 32 -16
172 -48 239 -36 77 -121 166 -195 206 -93 50 -230 70 -326 47z"/>
</g>
</svg>
